<svg width="24" height="24" viewBox="0 0 24 24" fill="none" xmlns="http://www.w3.org/2000/svg">
  <path d="M17.94 17.94A10.07 10.07 0 0 1 12 20C5 20 1 12 1 12A20.69 20.69 0 0 1 6.06 6.06L17.94 17.94Z" stroke="currentColor" stroke-width="2" stroke-linecap="round" stroke-linejoin="round" fill="none"/>
  <path d="M9.9 4.24A9.12 9.12 0 0 1 12 4C19 4 23 12 23 12A20.69 20.69 0 0 1 19.84 15.85" stroke="currentColor" stroke-width="2" stroke-linecap="round" stroke-linejoin="round"/>
  <path d="M14.12 14.12A3 3 0 1 1 9.88 9.88" stroke="currentColor" stroke-width="2" stroke-linecap="round" stroke-linejoin="round"/>
  <path d="M1 1L23 23" stroke="currentColor" stroke-width="2" stroke-linecap="round" stroke-linejoin="round"/>
</svg>